<?xml version="1.0" encoding="utf-8"?>
<?xml-stylesheet type="text/xsl" href="rss1.xsl"?>
<rss version="2.0" xmlns:atom="http://www.w3.org/2005/Atom" xmlns:content="http://purl.org/rss/1.0/modules/content/" xmlns:dc="http://purl.org/dc/elements/1.1/" xmlns:media="http://search.yahoo.com/mrss/">
<channel>
 <title>Getty</title>
 <link>http://www.gettyimg.com/</link>
 <atom:link href="http://www.gettyimg.com/" rel="self" type="application/rss+xml" />

 
                <item>
                <title><![CDATA[【HD Live Performances】UHDTV 4K - Sanremo 2024 - Prima Serata [06-02-24] - Rai4K 2160p]]></title>
                <link><![CDATA[https://sharemania.us/threads/sanremo-2024-prima-serata-06-02-24-rai4k-2160p.237186/]]></link>
                <description><![CDATA[<article>
<blockquote class="messageText SelectQuoteContainer ugc baseHtml">
Source: Rai hbbtv<br>
<br>
<img src="https://i.imgur.com/u56ihpm.jpeg" class="bbCodeImage LbImage" alt="[​IMG]" data-url="https://i.imgur.com/u56ihpm.jpeg" style=""><br>
<br>
<div class="bbCodeBlock bbCodeCode">
<div class="type">Code:</div>
<pre>General
Complete name                            : Sanremo 2024 - Prima Serata [06-02-24] - Rai4K 2160p.mkv
Format                                   : Matroska
Format version                           : Version 4
File size                                : 19.4 GiB
Duration                                 : 4 h 29 min
Overall bit rate                         : 10.3 Mb/s
Encoded date                             : UTC 2024-02-07 03:05:42
Writing application                      : mkvmerge v55.0.0 ('Waiting For Space') 64-bit
Writing library                          : libebml v1.4.2 + libmatroska v1.6.4
Video
ID                                       : 1
Format                                   : HEVC
Format/Info                              : High Efficiency Video Coding
Format profile                           : Main 10@L5.1@Main
Codec ID                                 : V_MPEGH/ISO/HEVC
Duration                                 : 4 h 29 min
Bit rate                                 : 9 992 kb/s
Width                                    : 3 840 pixels
Height                                   : 2 160 pixels
Display aspect ratio                     : 16:9
Frame rate mode                          : Constant
Frame rate                               : 50.000 FPS
Color space                              : YUV
Chroma subsampling                       : 4:2:0
Bit depth                                : 10 bits
Bits/(Pixel*Frame)                       : 0.024
Stream size                              : 18.8 GiB (97%)
Language                                 : Italian
Default                                  : Yes
Forced                                   : No
Color range                              : Limited
Color primaries                          : BT.2020
Transfer characteristics                 : HLG / BT.2020 (10-bit)
Matrix coefficients                      : BT.2020 non-constant
Audio
ID                                       : 2
Format                                   : AAC LC
Format/Info                              : Advanced Audio Codec Low Complexity
Codec ID                                 : A_AAC-2
Duration                                 : 4 h 29 min
Bit rate                                 : 317 kb/s
Channel(s)                               : 2 channels
Channel layout                           : L R
Sampling rate                            : 48.0 kHz
Frame rate                               : 46.875 FPS (1024 SPF)
Compression mode                         : Lossy
Delay relative to video                  : 5 ms
Stream size                              : 613 MiB (3%)
Language                                 : Italian
Default                                  : Yes
Forced                                   : No
</pre>
</div>Pixeldrain:<br>
<div class="bbCodeBlock bbCodeVfcHH HiddenContent">
<div class="attribution type">Hidden Content:</div>
<blockquote>You must reply before you can see the hidden data contained here.</blockquote>
</div>
<div class="messageTextEndMarker">&nbsp;</div>
</blockquote>
</article>]]></description>
                <author><![CDATA[LLAVE1]]></author>
                </item>

                </channel></rss>